<svg data-v-2cb57da0="" version="1.0" xmlns="http://www.w3.org/2000/svg" xmlns:xlink="http://www.w3.org/1999/xlink" width="100%" height="100%" viewBox="0 0 340.000000 250.000000" preserveAspectRatio="xMidYMid meet" color-interpolation-filters="sRGB" style="margin: auto;">
  <rect id="tcc" data-v-2cb57da0="" x="0" y="0" width="100%" height="100%" fill="#020d14" fill-opacity="0" class="background"></rect>
  <g data-v-2cb57da0="" fill="#ffffff" class="icon-text-wrapper icon-svg-group iconsvg" transform="translate(113.5,64.66500091552734)">
    <g fill="#00539f" class="iconsvg-imagesvg icon_container" transform="matrix(1,0,0,1,0,0)" mask="url(#94621f69-b5cf-4b37-b97c-ac6e021c7277)" opacity="1">
      <rect fill="#ffffff" fill-opacity="0" stroke-width="2" x="0" y="0" width="113" height="113" class="image-rect"></rect>
      <svg viewBox="0 0 60 60" x="0" y="0" width="113" height="113" class="image-svg-svg bn" style="overflow: visible;">
        <g hollow-target="">
          <g>
            <svg fill="#000000" xmlns="http://www.w3.org/2000/svg" xmlns:xlink="http://www.w3.org/1999/xlink" xml:space="preserve" version="1.1" style="shape-rendering: geometricprecision; text-rendering: geometricprecision; overflow: visible;" viewBox="0 0 333 333" x="0" y="0" fill-rule="evenodd" clip-rule="evenodd" width="60" height="60" filtersec="colorsf4065705481" filter="url(#Yewp0dqtoMpwNN2YcMo_g)">
              <g transform="scale(1, 1) skewX(0)">
                <defs>
                  <filter id="Yewp0dqtoMpwNN2YcMo_g">
                    <feColorMatrix type="matrix" values="0 0 0 0 0  0 0 0 0 0.32421875  0 0 0 0 0.62109375  0 0 0 1 0"></feColorMatrix>
                  </filter>
                </defs>
                <g>
                  <path class="fil0" d="M79 0l175 0c22,0 42,9 56,23l0 0 0 0c14,15 23,34 23,56l0 175c0,22 -9,42 -23,56l0 0 0 0c-14,14 -34,23 -56,23l-175 0c-22,0 -41,-9 -56,-23l0 0 0 0c-14,-14 -23,-34 -23,-56l0 -175c0,-22 9,-41 23,-56l0 0 0 0c15,-14 34,-23 56,-23zm175 16l-175 0c-17,0 -33,7 -44,19l0 0c-12,11 -19,27 -19,44l0 175c0,18 7,33 19,45l0 0c11,11 27,18 44,18l175 0c18,0 33,-7 45,-18l0 0c11,-12 18,-27 18,-45l0 -175c0,-17 -7,-33 -18,-44l0 0c-12,-12 -27,-19 -45,-19z"></path>
                </g>
              </g>
            </svg>
          </g>
          <g filter="url(#colors4783133816)">
            <svg xmlns="http://www.w3.org/2000/svg" xmlns:xlink="http://www.w3.org/1999/xlink" viewBox="0 0 92.73600000000002 48.02400000000001" width="40" height="40" x="10" y="10" class="image-svg-letter">
              <path transform="translate(-2.4480000000000004 48.02400000000001)" d="M28.80 0L4.68 0L4.68-8.57L26.64-8.57Q31.90-8.57 33.62-9.58L33.62-9.58Q36.14-11.09 36.14-14.11L36.14-14.11Q36.14-17.64 33.19-19.22L33.19-19.22Q31.54-20.16 27.86-20.16L27.86-20.16L18.94-20.16Q10.80-20.16 7.20-23.11L7.20-23.11Q4.97-24.98 3.71-27.79Q2.45-30.60 2.45-33.84L2.45-33.84Q2.45-38.88 5.40-43.06L5.40-43.06Q8.28-47.09 14.62-47.81L14.62-47.81Q16.78-48.02 21.02-48.02L21.02-48.02L44.86-48.02L44.86-39.46L23.33-39.46Q18.50-39.38 16.92-39.02L16.92-39.02Q13.68-38.23 13.68-34.13L13.68-34.13Q13.68-30.67 16.42-29.52L16.42-29.52Q18.22-28.66 22.46-28.66L22.46-28.66L30.17-28.66Q36.07-28.66 38.95-27.65L38.95-27.65Q44.06-25.92 46.01-21.60L46.01-21.60Q47.52-18.14 47.52-14.18L47.52-14.18Q47.52-9.79 45.50-6.34L45.50-6.34Q42.70-1.44 37.08-0.43L37.08-0.43Q34.34 0 28.80 0L28.80 0ZM52.78-48.02L63.00-48.02L63.00 0L52.78 0L52.78-48.02ZM80.78 0L63.36-24.26L81.72-48.02L95.18-48.02L75.10-24.26L94.25 0L80.78 0Z"></path>
            </svg>
          </g>
        </g>
      </svg>
      <defs>
        <filter id="colors4783133816">
          <feColorMatrix type="matrix" values="0 0 0 0 0  0 0 0 0 0.32421875  0 0 0 0 0.62109375  0 0 0 1 0" class="icon-fecolormatrix"></feColorMatrix>
        </filter>
        <filter id="colorsf4065705481">
          <feColorMatrix type="matrix" values="0 0 0 0 0.99609375  0 0 0 0 0.99609375  0 0 0 0 0.99609375  0 0 0 1 0" class="icon-fecolormatrix"></feColorMatrix>
        </filter>
        <filter id="colorsb9941136744">
          <feColorMatrix type="matrix" values="0 0 0 0 0  0 0 0 0 0  0 0 0 0 0  0 0 0 1 0" class="icon-fecolormatrix"></feColorMatrix>
        </filter>
      </defs>
      <rect v-gra="id" width="125" height="125" transform="translate(-6, -6)" style="pointer-events:none;" fill="url(#df99891e-cbb8-400c-9c8f-079002e1daa8)"></rect>
    </g>
    <g transform="translate(55.839999973773956,120)">
      <g data-gra="path-name" fill-rule="" class="tp-name iconsvg-namesvg" opacity="1" transform="matrix(1,0,0,1,0,0)">
        <g transform="scale(1)">
          <g>
            <path d="M0.4 0L0.07 0 0.07-0.12 0.37-0.12Q0.44-0.12 0.47-0.13L0.47-0.13Q0.5-0.15 0.5-0.2L0.5-0.2Q0.5-0.24 0.46-0.27L0.46-0.27Q0.44-0.28 0.39-0.28L0.39-0.28 0.26-0.28Q0.15-0.28 0.1-0.32L0.1-0.32Q0.07-0.35 0.05-0.39 0.03-0.42 0.03-0.47L0.03-0.47Q0.03-0.54 0.07-0.6L0.07-0.6Q0.12-0.65 0.2-0.66L0.2-0.66Q0.23-0.67 0.29-0.67L0.29-0.67 0.62-0.67 0.62-0.55 0.32-0.55Q0.26-0.55 0.24-0.54L0.24-0.54Q0.19-0.53 0.19-0.47L0.19-0.47Q0.19-0.43 0.23-0.41L0.23-0.41Q0.25-0.4 0.31-0.4L0.31-0.4 0.42-0.4Q0.5-0.4 0.54-0.38L0.54-0.38Q0.61-0.36 0.64-0.3L0.64-0.3Q0.66-0.25 0.66-0.2L0.66-0.2Q0.66-0.14 0.63-0.09L0.63-0.09Q0.59-0.02 0.52-0.01L0.52-0.01Q0.48 0 0.4 0L0.4 0ZM0.76-0.67L0.91-0.67 0.91 0 0.76 0 0.76-0.67ZM1.15 0L0.91-0.34 1.17-0.67 1.35-0.67 1.07-0.34 1.34 0 1.15 0Z" transform="translate(-0.030000001192092896, 0.6700000166893005)"></path>
          </g> <!----> <!----> <!----> <!----> <!----> <!----> <!---->
        </g>
      </g> <!---->
    </g>
  </g>
  <defs v-gra="od"></defs>
  <defs v-gra="id">
    <filter id="d9bc4b19-56a3-4c57-bbf0-1e1479b32e8b" filterUnits="userSpaceOnUse">
      <feColorMatrix type="matrix" values="0 0 0 0 0.99609375  0 0 0 0 0.99609375  0 0 0 0 0.99609375  0 0 0 1 0"></feColorMatrix>
    </filter>
    <linearGradient x1="0" y1="1" x2="0" y2="0" id="df99891e-cbb8-400c-9c8f-079002e1daa8">
      <stop offset="0%" stop-color="#2ebef3"></stop>
      <stop offset="100%" stop-color="#fffc9f"></stop>
    </linearGradient>
    <filter id="42443b3f1de60f6b6fd3b6a9844b4764" filterUnits="userSpaceOnUse">
      <feColorMatrix type="matrix" values="0 0 0 0 0.99609375  0 0 0 0 0.99609375  0 0 0 0 0.99609375  0 0 0 1 0"></feColorMatrix>
    </filter>
  </defs>
  <mask v-gra="im" id="94621f69-b5cf-4b37-b97c-ac6e021c7277">
    <g fill="#00539f" class="iconsvg-imagesvg icon_container" filter="url(#d9bc4b19-56a3-4c57-bbf0-1e1479b32e8b)">
      <rect fill="#ffffff" fill-opacity="0" stroke-width="2" x="0" y="0" width="113" height="113" class="image-rect"></rect>
      <svg viewBox="0 0 60 60" x="0" y="0" width="113" height="113" class="image-svg-svg bn" style="overflow: visible;">
        <g hollow-target="">
          <g>
            <svg fill="#000000" xmlns="http://www.w3.org/2000/svg" xmlns:xlink="http://www.w3.org/1999/xlink" xml:space="preserve" version="1.1" style="shape-rendering: geometricprecision; text-rendering: geometricprecision; overflow: visible;" viewBox="0 0 333 333" x="0" y="0" fill-rule="evenodd" clip-rule="evenodd" width="60" height="60" filtersec="colorsf4065705481">
              <g transform="scale(1, 1) skewX(0)">
                <defs>
                  <filter id="Yewp0dqtoMpwNN2YcMo_g">
                    <feColorMatrix type="matrix" values="0 0 0 0 0  0 0 0 0 0.32421875  0 0 0 0 0.62109375  0 0 0 1 0"></feColorMatrix>
                  </filter>
                </defs>
                <g>
                  <path class="fil0" d="M79 0l175 0c22,0 42,9 56,23l0 0 0 0c14,15 23,34 23,56l0 175c0,22 -9,42 -23,56l0 0 0 0c-14,14 -34,23 -56,23l-175 0c-22,0 -41,-9 -56,-23l0 0 0 0c-14,-14 -23,-34 -23,-56l0 -175c0,-22 9,-41 23,-56l0 0 0 0c15,-14 34,-23 56,-23zm175 16l-175 0c-17,0 -33,7 -44,19l0 0c-12,11 -19,27 -19,44l0 175c0,18 7,33 19,45l0 0c11,11 27,18 44,18l175 0c18,0 33,-7 45,-18l0 0c11,-12 18,-27 18,-45l0 -175c0,-17 -7,-33 -18,-44l0 0c-12,-12 -27,-19 -45,-19z"></path>
                </g>
              </g>
            </svg>
          </g>
          <g>
            <svg xmlns="http://www.w3.org/2000/svg" xmlns:xlink="http://www.w3.org/1999/xlink" viewBox="0 0 92.73600000000002 48.02400000000001" width="40" height="40" x="10" y="10" class="image-svg-letter">
              <path transform="translate(-2.4480000000000004 48.02400000000001)" d="M28.80 0L4.68 0L4.68-8.57L26.64-8.57Q31.90-8.57 33.62-9.58L33.62-9.58Q36.14-11.09 36.14-14.11L36.14-14.11Q36.14-17.64 33.19-19.22L33.19-19.22Q31.54-20.16 27.86-20.16L27.86-20.16L18.94-20.16Q10.80-20.16 7.20-23.11L7.20-23.11Q4.97-24.98 3.71-27.79Q2.45-30.60 2.45-33.84L2.45-33.84Q2.45-38.88 5.40-43.06L5.40-43.06Q8.28-47.09 14.62-47.81L14.62-47.81Q16.78-48.02 21.02-48.02L21.02-48.02L44.86-48.02L44.86-39.46L23.33-39.46Q18.50-39.38 16.92-39.02L16.92-39.02Q13.68-38.23 13.68-34.13L13.68-34.13Q13.68-30.67 16.42-29.52L16.42-29.52Q18.22-28.66 22.46-28.66L22.46-28.66L30.17-28.66Q36.07-28.66 38.95-27.65L38.95-27.65Q44.06-25.92 46.01-21.60L46.01-21.60Q47.52-18.14 47.52-14.18L47.52-14.18Q47.52-9.79 45.50-6.34L45.50-6.34Q42.70-1.44 37.08-0.43L37.08-0.43Q34.34 0 28.80 0L28.80 0ZM52.78-48.02L63.00-48.02L63.00 0L52.78 0L52.78-48.02ZM80.78 0L63.36-24.26L81.72-48.02L95.18-48.02L75.10-24.26L94.25 0L80.78 0Z"></path>
            </svg>
          </g>
        </g>
      </svg>
      <defs>
        <filter id="colors4783133816">
          <feColorMatrix type="matrix" values="0 0 0 0 0  0 0 0 0 0.32421875  0 0 0 0 0.62109375  0 0 0 1 0" class="icon-fecolormatrix"></feColorMatrix>
        </filter>
        <filter id="colorsf4065705481">
          <feColorMatrix type="matrix" values="0 0 0 0 0.99609375  0 0 0 0 0.99609375  0 0 0 0 0.99609375  0 0 0 1 0" class="icon-fecolormatrix"></feColorMatrix>
        </filter>
        <filter id="colorsb9941136744">
          <feColorMatrix type="matrix" values="0 0 0 0 0  0 0 0 0 0  0 0 0 0 0  0 0 0 1 0" class="icon-fecolormatrix"></feColorMatrix>
        </filter>
      </defs>
    </g>
  </mask>
</svg>